<svg width="23" height="23" viewBox="0 0 23 23" fill="none" xmlns="http://www.w3.org/2000/svg">
<path d="M9.11006 9.6C11.4849 9.6 13.4101 7.67482 13.4101 5.3C13.4101 2.92518 11.4849 1 9.11006 1C6.73523 1 4.81006 2.92518 4.81006 5.3C4.81006 7.67482 6.73523 9.6 9.11006 9.6Z" fill="#004AAD" stroke="white" stroke-width="0.6" stroke-miterlimit="10"/>
<path d="M1 19.1401L1.7 15.6701C2.04211 13.9564 2.96733 12.4142 4.31828 11.3057C5.66924 10.1972 7.36249 9.59098 9.11 9.59012C10.7726 9.58517 12.3887 10.138 13.7 11.1601" fill="#004AAD"/>
<path d="M1 19.1401L1.7 15.6701C2.04211 13.9564 2.96733 12.4142 4.31828 11.3057C5.66924 10.1972 7.36249 9.59098 9.11 9.59012C10.7726 9.58517 12.3887 10.138 13.7 11.1601" stroke="white" stroke-width="0.6" stroke-miterlimit="10"/>
<path d="M1 19.1401L1.7 15.6701C2.04211 13.9564 2.96733 12.4142 4.31828 11.3057C5.66924 10.1972 7.36249 9.59098 9.11 9.59012C10.7726 9.58517 12.3887 10.138 13.7 11.1601" fill="#004AAD"/>
<path d="M1 19.1401L1.7 15.6701C2.04211 13.9564 2.96733 12.4142 4.31828 11.3057C5.66924 10.1972 7.36249 9.59098 9.11 9.59012C10.7726 9.58517 12.3887 10.138 13.7 11.1601" stroke="white" stroke-width="0.6" stroke-miterlimit="10"/>
<path d="M13.7 11.0001L13.0136 14.4728C12.6783 16.1879 11.7591 17.7337 10.4125 18.8475C9.06596 19.9613 7.37511 20.5742 5.62761 20.5819C3.96508 20.5934 2.34673 20.047 1.03147 19.03" fill="#004AAD"/>
<path d="M13.7 11.0001L13.0136 14.4728C12.6783 16.1879 11.7591 17.7337 10.4125 18.8475C9.06596 19.9613 7.37511 20.5742 5.62761 20.5819C3.96508 20.5934 2.34673 20.047 1.03147 19.03" stroke="white" stroke-width="0.6" stroke-miterlimit="10"/>
<path d="M16.27 22C19.4346 22 22 19.4346 22 16.27C22 13.1054 19.4346 10.54 16.27 10.54C13.1054 10.54 10.54 13.1054 10.54 16.27C10.54 19.4346 13.1054 22 16.27 22Z" fill="#004AAD" stroke="white" stroke-width="0.6" stroke-miterlimit="10"/>
<path d="M13.4099 16.27H19.1399" stroke="white" stroke-width="0.6" stroke-miterlimit="10" stroke-linecap="round"/>
<path d="M16.27 13.4099V19.1399" stroke="white" stroke-width="0.6" stroke-miterlimit="10" stroke-linecap="round"/>
</svg>
