<svg width="33" height="33" viewBox="0 0 33 33" fill="none" xmlns="http://www.w3.org/2000/svg">
<circle cx="16.5" cy="16.5" r="16.2" stroke="white" stroke-width="0.6"/>
<path d="M17.6897 24.7014L22.9109 17.7481C23.7593 16.6175 24.1353 15.1875 23.9564 13.7725C23.7774 12.3575 23.058 11.0733 21.9565 10.2023C21.4216 9.74479 20.8003 9.40564 20.1316 9.20615C19.4629 9.00667 18.7612 8.95116 18.0706 9.04311C17.38 9.13506 16.7154 9.37248 16.1185 9.74048C15.5216 10.1085 15.0052 10.5991 14.6019 11.1816L8.70699 18.9907C7.19116 20.8504 8.38618 23.105 9.73358 24.1912C10.4555 24.7921 11.3794 25.0764 12.3044 24.9824C13.2295 24.8884 14.081 24.4237 14.6741 23.6893L20.5369 15.8802C20.7172 15.6404 20.8497 15.3664 20.9267 15.0741C21.0038 14.7817 21.0239 14.4766 20.9859 14.1762C20.9479 13.8759 20.8526 13.5861 20.7053 13.3236C20.5581 13.0611 20.3619 12.8309 20.1278 12.6463C19.655 12.2747 19.0581 12.1103 18.4675 12.189C17.8769 12.2676 17.3406 12.5829 16.9759 13.0659L12.0274 19.649" stroke="white" stroke-width="0.6" stroke-miterlimit="10"/>
</svg>
