<svg width="23" height="23" viewBox="0 0 23 23" fill="none" xmlns="http://www.w3.org/2000/svg">
<path d="M18.9192 18.93C17.6979 20.1496 16.1948 21.0492 14.5429 21.5494C12.891 22.0496 11.1413 22.1349 9.44859 21.7976C7.75589 21.4604 6.17242 20.7112 4.83831 19.6161C3.50421 18.5211 2.4606 17.1141 1.79987 15.5196C1.13914 13.9251 0.881644 12.1924 1.05018 10.4747C1.21872 8.75696 1.8081 7.10728 2.76614 5.67164C3.72419 4.23599 5.02137 3.05865 6.54287 2.24382C8.06437 1.42898 9.76328 1.00177 11.4892 1V11.5L18.9192 18.93Z" stroke="black" stroke-opacity="0.32" stroke-width="0.6" stroke-miterlimit="10"/>
<path d="M21.9893 11.5C21.9923 12.8797 21.7227 14.2463 21.1958 15.5214C20.6689 16.7965 19.8953 17.9549 18.9193 18.93L11.4893 11.5" stroke="black" stroke-opacity="0.32" stroke-width="0.6" stroke-miterlimit="10"/>
<path d="M11.4893 11.5V1C14.274 1 16.9447 2.10625 18.9139 4.07538C20.883 6.04451 21.9893 8.71523 21.9893 11.5" stroke="black" stroke-opacity="0.32" stroke-width="0.6" stroke-miterlimit="10"/>
<path d="M12.4392 11.5H21.9892" stroke="black" stroke-opacity="0.32" stroke-width="0.6" stroke-miterlimit="10"/>
</svg>
