<svg width="18" height="18" viewBox="0 0 18 18" fill="none" xmlns="http://www.w3.org/2000/svg">
<path d="M9 9C11.2091 9 13 7.20914 13 5C13 2.79086 11.2091 1 9 1C6.79086 1 5 2.79086 5 5C5 7.20914 6.79086 9 9 9Z" fill="#004AAD" stroke="#004AAD" stroke-width="0.6" stroke-miterlimit="10"/>
<path d="M1 16.9848L1.2819 15.4229C1.61493 13.619 2.56932 11.9888 3.97928 10.8155C5.38924 9.64215 7.16568 8.99979 9 9C10.8365 9.00045 12.6147 9.64497 14.0249 10.8213C15.4352 11.9977 16.3882 13.6315 16.7181 15.4381L17 17" fill="#004AAD"/>
<path d="M1 16.9848L1.2819 15.4229C1.61493 13.619 2.56932 11.9888 3.97928 10.8155C5.38924 9.64215 7.16568 8.99979 9 9C10.8365 9.00045 12.6147 9.64497 14.0249 10.8213C15.4352 11.9977 16.3882 13.6315 16.7181 15.4381L17 17" stroke="#004AAD" stroke-width="0.6" stroke-miterlimit="10"/>
</svg>
