<svg width="23" height="24" viewBox="0 0 23 24" fill="none" xmlns="http://www.w3.org/2000/svg">
<path d="M9.3 8.6C11.6748 8.6 13.6 6.67482 13.6 4.3C13.6 1.92518 11.6748 0 9.3 0C6.92518 0 5 1.92518 5 4.3C5 6.67482 6.92518 8.6 9.3 8.6Z" fill="#004AAD"/>
<path d="M1 19.55L1.7 16.08C2.04211 14.3663 2.96733 12.8241 4.31828 11.7156C5.66924 10.6071 7.36249 10.0009 9.11 10C10.7754 9.99668 12.3942 10.5492 13.71 11.57" fill="#004AAD"/>
<path d="M1 19.55L1.7 16.08C2.04211 14.3663 2.96733 12.8241 4.31828 11.7156C5.66924 10.6071 7.36249 10.0009 9.11 10C10.7754 9.99668 12.3942 10.5492 13.71 11.57" stroke="#004AAD" stroke-width="0.6" stroke-miterlimit="10"/>
<path d="M14.0002 11.3238L13.2059 14.9394C12.8172 16.7251 11.8483 18.3165 10.4641 19.4428C9.07978 20.569 7.3656 21.1607 5.61311 21.117C3.94295 21.0781 2.33423 20.4583 1.04186 19.3558" fill="#004AAD"/>
<path d="M14.0002 11.3238L13.2059 14.9394C12.8172 16.7251 11.8483 18.3165 10.4641 19.4428C9.07978 20.569 7.3656 21.1607 5.61311 21.117C3.94295 21.0781 2.33423 20.4583 1.04186 19.3558" stroke="#004AAD" stroke-width="0.6" stroke-miterlimit="10"/>
<path d="M16.27 23C19.4346 23 22 20.4346 22 17.27C22 14.1054 19.4346 11.54 16.27 11.54C13.1054 11.54 10.54 14.1054 10.54 17.27C10.54 20.4346 13.1054 23 16.27 23Z" fill="#004AAD" stroke="white" stroke-width="0.6" stroke-miterlimit="10"/>
<path d="M19.1401 15.3604L15.8001 18.7004L13.8901 16.8004" stroke="white" stroke-width="0.6" stroke-miterlimit="10"/>
</svg>
