<svg width="18" height="24" viewBox="0 0 18 24" fill="none" xmlns="http://www.w3.org/2000/svg">
<path d="M9.72142 1.22939L8.25492 1.22536C4.9114 1.21617 2.00832 4.39796 1.98528 8.25388V15.0335C1.98528 15.9585 1.88469 16.8625 1.45381 17.6322L1.16685 18.1446C0.731072 18.9229 1.19966 19.9654 1.98528 19.9654H16.0147C16.8003 19.9654 17.2689 18.9229 16.8331 18.1446L16.5462 17.6322C16.1153 16.8625 16.0147 15.9585 16.0147 15.0335V8.25388C15.9758 4.39779 13.0649 1.23857 9.72142 1.22939Z" stroke="black" stroke-opacity="0.7" stroke-width="0.6" stroke-linecap="round" stroke-linejoin="round"/>
<path d="M12 19.9651C12 21.9057 10.6569 23.4788 9.00001 23.4788C7.3431 23.4788 6 21.9057 6 19.9651" stroke="black" stroke-opacity="0.7" stroke-width="0.6" stroke-linecap="round" stroke-linejoin="round"/>
</svg>
