<svg width="16" height="17" viewBox="0 0 16 17" fill="none" xmlns="http://www.w3.org/2000/svg">
<path d="M8 9C10.2091 9 12 7.20914 12 5C12 2.79086 10.2091 1 8 1C5.79086 1 4 2.79086 4 5C4 7.20914 5.79086 9 8 9Z" fill="#004AAD" stroke="#004AAD" stroke-width="0.5" stroke-miterlimit="10"/>
<path d="M1 15.9867L1.24667 14.62C1.53807 13.0416 2.37316 11.6152 3.60687 10.5886C4.84059 9.56188 6.39497 8.99982 8 9C9.60694 9.00039 11.1628 9.56435 12.3968 10.5937C13.6308 11.623 14.4647 13.0525 14.7533 14.6333L15 16" fill="#004AAD"/>
<path d="M1 15.9867L1.24667 14.62C1.53807 13.0416 2.37316 11.6152 3.60687 10.5886C4.84059 9.56188 6.39497 8.99982 8 9C9.60694 9.00039 11.1628 9.56435 12.3968 10.5937C13.6308 11.623 14.4647 13.0525 14.7533 14.6333L15 16" stroke="#004AAD" stroke-width="0.5" stroke-miterlimit="10"/>
</svg>
