<svg width="9" height="9" viewBox="0 0 9 9" fill="none" xmlns="http://www.w3.org/2000/svg">
<path d="M7.92377 6.20927C8.51571 6.80121 8.52014 7.76536 7.9282 8.3573L7.78767 8.49784C7.46614 8.81937 7.02898 9.00968 6.57643 8.96544C4.9045 8.80199 3.33201 8.06427 2.13387 6.86613C0.935734 5.66799 0.198008 4.0955 0.0345658 2.42357C-0.00967476 1.97102 0.180634 1.53387 0.502165 1.21233L0.642698 1.0718C1.23464 0.479862 2.19879 0.48429 2.79073 1.07623C3.37717 1.66267 3.38227 2.61765 2.79671 3.20498C2.51576 3.48676 2.34026 3.87255 2.42218 4.26194C2.54099 4.82673 2.82148 5.34987 3.2358 5.7642C3.65013 6.17852 4.17327 6.45901 4.73806 6.57783C5.12745 6.65974 5.51324 6.48424 5.79502 6.20329C6.38235 5.61773 7.33733 5.62283 7.92377 6.20927Z" fill="black" fill-opacity="0.27"/>
</svg>
