<svg width="27" height="27" viewBox="0 0 27 27" fill="none" xmlns="http://www.w3.org/2000/svg">
<path d="M23.6971 13.5C23.6983 12.8727 23.6387 12.2467 23.519 11.631L26 10.2024L22.5931 4.25L20.1239 5.67857C19.1694 4.86743 18.0752 4.23804 16.8951 3.82143V1H10.1049V3.86905C8.92482 4.28566 7.83055 4.91504 6.87607 5.72619L4.40693 4.29762L1 10.25L3.48101 11.6786C3.24355 12.9132 3.24355 14.182 3.48101 15.4167L1 16.8452L4.40693 22.7976L6.87607 21.369C7.83055 22.1802 8.92482 22.8096 10.1049 23.2262V26H16.8951V23.131C18.0752 22.7143 19.1694 22.085 20.1239 21.2738L22.5931 22.7024L26 16.75L23.519 15.3214C23.6357 14.7213 23.6953 14.1114 23.6971 13.5Z" stroke="black" stroke-opacity="0.7" stroke-width="0.6" stroke-miterlimit="10"/>
<path d="M13.5 18.0476C16.0044 18.0476 18.0347 16.0116 18.0347 13.5C18.0347 10.9884 16.0044 8.95239 13.5 8.95239C10.9956 8.95239 8.96533 10.9884 8.96533 13.5C8.96533 16.0116 10.9956 18.0476 13.5 18.0476Z" stroke="black" stroke-opacity="0.7" stroke-width="0.6" stroke-miterlimit="10"/>
</svg>
