<svg width="18" height="17" viewBox="0 0 18 17" fill="none" xmlns="http://www.w3.org/2000/svg">
<path d="M9.21802 6.46134V1" stroke="#004AAD" stroke-width="0.8" stroke-miterlimit="10"/>
<path d="M11.4281 4.41138L9.21809 6.46125L7 4.41138" stroke="#004AAD" stroke-width="0.8" stroke-miterlimit="10"/>
<path d="M7.3911 16.0001C8.20927 16.0001 8.87252 15.3872 8.87252 14.631C8.87252 13.8749 8.20927 13.262 7.3911 13.262C6.57293 13.262 5.90967 13.8749 5.90967 14.631C5.90967 15.3872 6.57293 16.0001 7.3911 16.0001Z" stroke="#004AAD" stroke-width="0.8" stroke-miterlimit="10"/>
<path d="M14.0451 16.0001C14.8633 16.0001 15.5266 15.3872 15.5266 14.631C15.5266 13.8749 14.8633 13.262 14.0451 13.262C13.227 13.262 12.5637 13.8749 12.5637 14.631C12.5637 15.3872 13.227 16.0001 14.0451 16.0001Z" stroke="#004AAD" stroke-width="0.8" stroke-miterlimit="10"/>
<path d="M0 1.00003H2.05619C2.52622 0.997627 2.98493 1.13328 3.36614 1.38741C3.74734 1.64155 4.03133 2.00103 4.17714 2.41399L6.65429 9.85039H6.28191C5.79239 9.85039 5.32293 10.0301 4.97679 10.35C4.63065 10.6699 4.43619 11.1037 4.43619 11.5561C4.43619 12.0085 4.63065 12.4424 4.97679 12.7623C5.32293 13.0821 5.79239 13.2619 6.28191 13.2619H14.0452" fill="#004AAD"/>
<path d="M0 1.00003H2.05619C2.52622 0.997627 2.98493 1.13328 3.36614 1.38741C3.74734 1.64155 4.03133 2.00103 4.17714 2.41399L6.65429 9.85039H6.28191C5.79239 9.85039 5.32293 10.0301 4.97679 10.35C4.63065 10.6699 4.43619 11.1037 4.43619 11.5561C4.43619 12.0085 4.63065 12.4424 4.97679 12.7623C5.32293 13.0821 5.79239 13.2619 6.28191 13.2619H14.0452" stroke="#004AAD" stroke-width="0.8" stroke-miterlimit="10"/>
<path d="M17 3.70093V5.06252L15.5186 9.85054H6.6543" fill="#004AAD"/>
<path d="M17 3.70093V5.06252L15.5186 9.85054H6.6543" stroke="#004AAD" stroke-width="0.8" stroke-miterlimit="10"/>
</svg>
