<svg width="18" height="14" viewBox="0 0 18 14" fill="none" xmlns="http://www.w3.org/2000/svg">
<path d="M4.6342 13.0001C5.43792 13.0001 6.08946 12.4628 6.08946 11.8001C6.08946 11.1374 5.43792 10.6001 4.6342 10.6001C3.83049 10.6001 3.17896 11.1374 3.17896 11.8001C3.17896 12.4628 3.83049 13.0001 4.6342 13.0001Z" fill="#004AAD" stroke="white" stroke-width="0.6" stroke-miterlimit="10"/>
<path d="M13.3657 13.0001C14.1694 13.0001 14.8209 12.4628 14.8209 11.8001C14.8209 11.1374 14.1694 10.6001 13.3657 10.6001C12.5619 10.6001 11.9104 11.1374 11.9104 11.8001C11.9104 12.4628 12.5619 13.0001 13.3657 13.0001Z" fill="#004AAD" stroke="white" stroke-width="0.6" stroke-miterlimit="10"/>
<path d="M14.8209 11.7999H17V8.19993L15.8571 4.30465C15.7772 4.04026 15.5901 3.80635 15.3268 3.64177C15.0634 3.4772 14.7397 3.39186 14.4095 3.39994H11.9104V11.7999" fill="#004AAD"/>
<path d="M14.8209 11.7999H17V8.19993L15.8571 4.30465C15.7772 4.04026 15.5901 3.80635 15.3268 3.64177C15.0634 3.4772 14.7397 3.39186 14.4095 3.39994H11.9104V11.7999" stroke="white" stroke-width="0.6" stroke-miterlimit="10"/>
<path d="M6.08957 11.8H11.9106V8.79688H1V11.8H3.17907" fill="#004AAD"/>
<path d="M6.08957 11.8H11.9106V8.79688H1V11.8H3.17907" stroke="white" stroke-width="0.6" stroke-miterlimit="10"/>
<path d="M11.9106 1H1V8.79685H11.9106V1Z" fill="#004AAD" stroke="white" stroke-width="0.6" stroke-miterlimit="10"/>
<path d="M11.9104 7H13.3657L14.8209 8.2H17" fill="#004AAD"/>
<path d="M11.9104 7H13.3657L14.8209 8.2H17" stroke="white" stroke-width="0.6" stroke-miterlimit="10"/>
</svg>
