<svg width="20" height="20" viewBox="0 0 20 20" fill="none" xmlns="http://www.w3.org/2000/svg">
<path d="M17 6V17C17 18.1046 16.1046 19 15 19H5C3.89543 19 3 18.1046 3 17V6" fill="#004AAD"/>
<path d="M17 6V17C17 18.1046 16.1046 19 15 19H5C3.89543 19 3 18.1046 3 17V6" stroke="white" stroke-width="0.6" stroke-miterlimit="10"/>
<mask id="path-3-outside-1_1759_6" maskUnits="userSpaceOnUse" x="0" y="0" width="20" height="9" fill="black">
<rect fill="white" width="20" height="9"/>
<path d="M19 8L11.2279 1.95502C10.5057 1.39329 9.49434 1.39329 8.77212 1.95502L1 8"/>
</mask>
<path d="M19 8L11.2279 1.95502C10.5057 1.39329 9.49434 1.39329 8.77212 1.95502L1 8" fill="#004AAD"/>
<path d="M18.6316 8.47361C18.8932 8.67705 19.2702 8.62993 19.4736 8.36836C19.6771 8.1068 19.6299 7.72983 19.3684 7.52639L18.6316 8.47361ZM0.631636 7.52639C0.370067 7.72983 0.322947 8.1068 0.526389 8.36836C0.729831 8.62993 1.1068 8.67705 1.36836 8.47361L0.631636 7.52639ZM11.2279 1.95502L10.8595 2.42863L11.2279 1.95502ZM8.77212 1.95502L9.14048 2.42863L8.77212 1.95502ZM19.3684 7.52639L11.5962 1.48141L10.8595 2.42863L18.6316 8.47361L19.3684 7.52639ZM8.40375 1.48141L0.631636 7.52639L1.36836 8.47361L9.14048 2.42863L8.40375 1.48141ZM11.5962 1.48141C10.6574 0.75116 9.34264 0.751162 8.40375 1.48141L9.14048 2.42863C9.64604 2.03542 10.354 2.03542 10.8595 2.42863L11.5962 1.48141Z" fill="#004AAD" mask="url(#path-3-outside-1_1759_6)"/>
<path d="M6 11.75C6 11.3358 6.33579 11 6.75 11C7.34674 11 7.91903 11.2371 8.34099 11.659C8.76295 12.081 9 12.6533 9 13.25C9 13.6642 8.66421 14 8.25 14C7.65326 14 7.08097 13.7629 6.65901 13.341C6.23705 12.919 6 12.3467 6 11.75Z" fill="#004AAD" stroke="white" stroke-width="0.6" stroke-miterlimit="10"/>
<path d="M12.75 12H13.25C13.6642 12 14 12.3358 14 12.75C14 13.3467 13.6049 13.919 12.9017 14.341C12.1984 14.7629 11.2446 15 10.25 15H9.75C9.33579 15 9 14.6642 9 14.25C9 13.6533 9.39509 13.081 10.0983 12.659C10.8016 12.2371 11.7554 12 12.75 12Z" fill="#004AAD" stroke="white" stroke-width="0.6" stroke-miterlimit="10"/>
<path d="M9 19V14" stroke="white" stroke-width="0.6" stroke-miterlimit="10"/>
</svg>
